<svg xmlns="http://www.w3.org/2000/svg" viewBox="0 0 1200 630" fill="none">
  <!-- Background -->
  <rect width="1200" height="630" fill="#f7f3ef"/>
  <!-- Top accent bar -->
  <rect width="1200" height="6" fill="#0b4d3b"/>
  <!-- Left decorative block -->
  <rect x="0" y="0" width="320" height="630" fill="#0b2239"/>
  <!-- Shield icon large -->
  <path d="M120 160L60 190V270C60 310 85 348 120 360C155 348 180 310 180 270V190L120 160Z" fill="#0b4d3b"/>
  <path d="M96 268L112 284L148 244" stroke="white" stroke-width="8" stroke-linecap="round" stroke-linejoin="round"/>
  <!-- Left side text -->
  <text x="60" y="420" font-family="Georgia, serif" font-size="22" font-weight="400" fill="rgba(255,255,255,0.6)" letter-spacing="3">FINANCIAL HELP</text>
  <text x="60" y="450" font-family="Georgia, serif" font-size="22" font-weight="400" fill="rgba(255,255,255,0.6)" letter-spacing="3">MADE HUMAN</text>
  <!-- Main content area -->
  <!-- Logo wordmark -->
  <text x="380" y="240" font-family="Georgia, serif" font-size="68" font-weight="700" fill="#0b4d3b">We</text>
  <text x="476" y="240" font-family="Georgia, serif" font-size="68" font-weight="700" fill="#0b2239">Help</text>
  <text x="656" y="240" font-family="Georgia, serif" font-size="68" font-weight="400" fill="#0b4d3b">Finance</text>
  <!-- Divider -->
  <rect x="380" y="265" width="780" height="2" fill="#0b4d3b" opacity="0.15"/>
  <!-- Tagline -->
  <text x="380" y="320" font-family="system-ui, sans-serif" font-size="28" font-weight="400" fill="#555" letter-spacing="0.5">Debt Relief · Tax Relief · Personal Loans</text>
  <!-- Trust badges -->
  <rect x="380" y="390" width="220" height="56" rx="28" fill="#0b4d3b"/>
  <text x="490" y="424" font-family="system-ui, sans-serif" font-size="16" font-weight="600" fill="white" text-anchor="middle">Free Consultation</text>
  <rect x="616" y="390" width="200" height="56" rx="28" fill="transparent" stroke="#0b4d3b" stroke-width="2"/>
  <text x="716" y="424" font-family="system-ui, sans-serif" font-size="16" font-weight="600" fill="#0b4d3b" text-anchor="middle">No Obligation</text>
  <rect x="830" y="390" width="240" height="56" rx="28" fill="transparent" stroke="#0b4d3b" stroke-width="2"/>
  <text x="950" y="424" font-family="system-ui, sans-serif" font-size="16" font-weight="600" fill="#0b4d3b" text-anchor="middle">Secure &amp; Confidential</text>
  <!-- URL -->
  <text x="380" y="560" font-family="system-ui, sans-serif" font-size="20" font-weight="500" fill="#999">wehelpfinance.com</text>
</svg>
